<?xml version="1.0" standalone="no"?>
<!DOCTYPE svg PUBLIC "-//W3C//DTD SVG 20010904//EN"
 "http://www.w3.org/TR/2001/REC-SVG-20010904/DTD/svg10.dtd">
<svg version="1.0" xmlns="http://www.w3.org/2000/svg"
 width="1280.000000pt" height="1280.000000pt" viewBox="0 0 1280.000000 1280.000000"
 preserveAspectRatio="xMidYMid meet">
<metadata>
Created by potrace 1.15, written by Peter Selinger 2001-2017
</metadata>
<g transform="translate(0.000000,1280.000000) scale(0.100000,-0.100000)"
fill="#d0d0d0" stroke="none">
<path fill="#d0d0d0" d="M2479 12009 c-87 -13 -312 -66 -397 -95 -284 -94 -596 -324 -786
-578 -177 -236 -246 -384 -311 -666 -19 -80 -39 -189 -44 -242 -15 -133 -15
-7896 -1 -8022 24 -209 99 -472 179 -630 105 -206 294 -437 466 -571 230 -179
389 -258 654 -325 258 -65 -91 -60 4296 -60 4372 0 4031 -5 4290 59 230 57
372 121 569 259 234 164 428 390 556 647 92 185 158 422 180 647 7 69 10 1412
7 4058 -3 3717 -4 3960 -20 4040 -73 350 -141 521 -304 752 -104 149 -224 273
-364 377 -217 163 -371 237 -609 297 -279 69 80 64 -4320 63 -2192 -1 -4010
-5 -4041 -10z m7354 -1429 c260 -30 537 -213 677 -448 57 -97 107 -225 120
-307 7 -49 10 -1075 8 -3425 l-3 -3355 -29 -75 c-102 -269 -258 -450 -481
-560 -123 -60 -177 -78 -274 -91 -50 -6 -1237 -9 -3401 -7 l-3325 3 -104 37
c-304 109 -510 316 -618 623 l-28 80 0 3390 0 3390 23 70 c57 169 135 295 254
411 91 89 164 140 272 189 101 45 166 65 244 75 103 12 6560 12 6665 0z"/>
<path fill="#d0d0d0" d="M7984 7655 c-140 -32 -278 -105 -388 -204 -31 -28 -58 -51 -60 -51
-2 0 -4 20 -4 44 1 52 -21 92 -58 106 -39 15 -653 13 -684 -3 -14 -7 -34 -30
-45 -52 -18 -36 -20 -70 -27 -330 -12 -523 -54 -850 -131 -1025 l-20 -45 -8
30 c-15 49 -8 359 12 510 15 120 64 378 114 605 8 36 15 89 15 118 0 45 -4 58
-28 81 l-27 28 -353 13 c-389 14 -388 14 -416 -44 -8 -17 -20 -62 -26 -99
l-12 -68 -80 86 c-196 209 -403 295 -711 295 -205 0 -432 -32 -572 -80 -55
-19 -56 -19 -91 2 -35 21 -41 21 -777 19 -817 -2 -775 1 -802 -64 -9 -23 -15
-140 -20 -420 l-7 -387 34 -34 c31 -31 39 -33 128 -42 52 -5 123 -9 157 -8
l62 0 3 -667 3 -668 30 -31 30 -32 145 5 c80 3 217 11 305 17 147 10 168 14
253 48 53 20 102 46 112 59 20 26 26 69 40 283 22 346 50 765 66 968 l6 72 45
0 46 0 -7 -177 c-6 -192 -22 -1098 -20 -1175 2 -57 27 -94 74 -108 46 -13 580
-13 615 0 50 19 136 82 150 111 10 19 15 59 15 121 0 50 4 88 8 83 5 -6 25
-66 46 -135 43 -141 54 -163 95 -185 32 -16 21 -18 341 54 287 65 316 73 337
86 34 23 84 104 85 140 l1 34 69 -74 c79 -84 168 -145 260 -176 53 -18 80 -20
168 -17 58 3 111 7 119 9 10 3 17 -8 23 -32 5 -21 20 -47 33 -59 21 -20 34
-22 114 -21 49 1 122 5 163 11 40 5 127 12 193 15 191 11 223 29 232 134 3 34
7 61 10 61 2 0 58 -27 126 -60 67 -33 179 -78 247 -102 124 -41 126 -42 275
-42 182 -1 283 21 418 92 168 88 273 196 357 367 73 151 94 252 94 460 0 131
-4 185 -17 235 -23 84 -74 192 -120 253 l-37 47 58 0 c31 0 74 3 94 6 l38 7 2
-651 c3 -608 4 -651 21 -670 10 -11 59 -37 109 -57 88 -37 95 -38 197 -36 57
1 107 4 110 6 3 1 92 8 196 15 105 7 198 16 207 21 40 21 49 64 69 327 24 328
59 846 66 983 l6 106 136 12 c213 19 219 21 244 73 12 26 16 102 22 379 7 367
6 381 -40 419 -21 17 -1497 15 -1525 -2 -13 -9 -32 -5 -85 16 -132 53 -216 67
-410 71 -130 3 -197 0 -241 -10z m-2824 -920 c0 -43 -6 -69 -21 -94 -11 -18
-21 -32 -23 -30 -2 2 -1 63 2 134 l5 130 18 -40 c11 -24 19 -64 19 -100z
m2295 -475 c18 -19 17 -20 -3 -20 -15 0 -22 6 -22 20 0 11 2 20 3 20 2 0 12
-9 22 -20z m-1670 -242 c20 -91 19 -92 -20 -18 -39 75 -41 87 -17 113 17 19
17 19 20 -4 2 -13 9 -54 17 -91z"/>
</g>
</svg>
