<?xml version="1.0" standalone="no"?>
<!DOCTYPE svg PUBLIC "-//W3C//DTD SVG 20010904//EN"
 "http://www.w3.org/TR/2001/REC-SVG-20010904/DTD/svg10.dtd">
<svg version="1.0" xmlns="http://www.w3.org/2000/svg"
 width="1280.000000pt" height="1280.000000pt" viewBox="0 0 1280.000000 1280.000000"
 preserveAspectRatio="xMidYMid meet">
<metadata>
Created by potrace 1.15, written by Peter Selinger 2001-2017
</metadata>
<g transform="translate(0.000000,1280.000000) scale(0.100000,-0.100000)"
fill="#d0d0d0" stroke="none">
<path fill="#d0d0d0" d="M2479 12009 c-87 -13 -312 -66 -397 -95 -284 -94 -596 -324 -786
-578 -177 -236 -246 -384 -311 -666 -19 -80 -39 -189 -44 -242 -15 -133 -15
-7896 -1 -8022 24 -209 99 -472 179 -630 105 -206 294 -437 466 -571 230 -179
389 -258 654 -325 258 -65 -91 -60 4296 -60 4372 0 4031 -5 4290 59 230 57
372 121 569 259 234 164 428 390 556 647 92 185 158 422 180 647 7 69 10 1412
7 4058 -3 3717 -4 3960 -20 4040 -73 350 -141 521 -304 752 -104 149 -224 273
-364 377 -217 163 -371 237 -609 297 -279 69 80 64 -4320 63 -2192 -1 -4010
-5 -4041 -10z m7354 -1429 c260 -30 537 -213 677 -448 57 -97 107 -225 120
-307 7 -49 10 -1075 8 -3425 l-3 -3355 -29 -75 c-102 -269 -258 -450 -481
-560 -123 -60 -177 -78 -274 -91 -50 -6 -1237 -9 -3401 -7 l-3325 3 -104 37
c-304 109 -510 316 -618 623 l-28 80 0 3390 0 3390 23 70 c57 169 135 295 254
411 91 89 164 140 272 189 101 45 166 65 244 75 103 12 6560 12 6665 0z"/>
<path fill="#d0d0d0" d="M6140 9763 c-14 -18 -19 -35 -15 -51 11 -43 448 -671 475 -682 17 -7
325 -9 948 -8 l924 3 19 24 c19 23 20 40 17 363 l-3 340 -24 19 c-23 18 -56
19 -1171 19 l-1149 0 -21 -27z"/>
<path fill="#d0d0d0" d="M3314 9419 c-18 -20 -19 -48 -21 -928 -2 -717 0 -911 10 -931 7 -14
91 -87 187 -163 510 -403 754 -590 787 -604 55 -23 141 -14 192 20 99 65 123
158 119 446 l-3 197 82 11 c139 19 214 67 264 169 l24 49 0 760 0 760 -25 48
c-31 62 -96 122 -168 155 l-57 27 -686 3 -685 3 -20 -22z m1324 -311 c9 -9 12
-170 12 -664 0 -706 3 -664 -51 -664 -18 0 -19 12 -19 350 0 368 -5 426 -45
495 -38 67 -90 110 -340 288 -132 94 -251 179 -264 189 -23 18 -15 18 336 18
266 0 362 -3 371 -12z"/>
<path fill="#d0d0d0" d="M6618 8963 c-9 -2 -90 -97 -180 -211 -252 -316 -246 -306 -207 -356
l20 -26 193 0 193 0 12 -81 c49 -319 232 -563 524 -699 261 -121 556 -115 822
18 236 117 408 324 487 584 20 67 22 99 26 392 2 175 1 329 -2 341 -3 12 -17
27 -31 33 -19 9 -259 12 -933 11 -499 -1 -914 -3 -924 -6z"/>
<path fill="#d0d0d0" d="M6076 7319 c-104 -25 -189 -67 -287 -141 -101 -76 -115 -94 -491
-596 l-309 -413 -44 33 c-24 18 -225 177 -446 353 -450 358 -463 367 -544 396
-179 63 -368 15 -503 -125 -172 -179 -187 -437 -36 -623 30 -36 286 -241 1144
-917 243 -191 319 -237 440 -262 87 -18 156 -14 250 16 133 42 137 46 575 630
l400 534 5 -846 c4 -696 7 -848 19 -861 16 -20 71 -22 93 -4 8 6 141 179 295
382 1639 2168 1786 2366 1786 2397 0 15 -8 37 -18 48 -18 20 -28 20 -1134 19
-1068 0 -1119 -1 -1195 -20z"/>
<path fill="#d0d0d0" d="M8816 7308 c-31 -31 -371 -484 -1416 -1892 -228 -307 -477 -641 -552
-742 -114 -153 -138 -191 -138 -219 0 -69 -55 -65 932 -65 l888 0 0 -155 0
-155 -1124 0 c-1092 0 -1124 -1 -1147 -19 l-24 -19 0 -506 c0 -472 1 -506 18
-523 17 -17 97 -18 1610 -21 1147 -2 1600 1 1619 9 15 6 31 24 37 41 14 41 15
3519 1 3662 -34 349 -203 553 -510 616 -134 28 -154 26 -194 -12z"/>
</g>
</svg>
