<?xml version="1.0" standalone="no"?>
<!DOCTYPE svg PUBLIC "-//W3C//DTD SVG 20010904//EN"
 "http://www.w3.org/TR/2001/REC-SVG-20010904/DTD/svg10.dtd">
<svg version="1.0" xmlns="http://www.w3.org/2000/svg"
 width="1280.000000pt" height="1280.000000pt" viewBox="0 0 1280.000000 1280.000000"
 preserveAspectRatio="xMidYMid meet">
<metadata>
Created by potrace 1.15, written by Peter Selinger 2001-2017
</metadata>
<g transform="translate(0.000000,1280.000000) scale(0.100000,-0.100000)"
fill="#d0d0d0" stroke="none">
<path fill="#d0d0d0" d="M2479 12009 c-87 -13 -312 -66 -397 -95 -284 -94 -596 -324 -786
-578 -177 -236 -246 -384 -311 -666 -19 -80 -39 -189 -44 -242 -15 -133 -15
-7896 -1 -8022 24 -209 99 -472 179 -630 105 -206 294 -437 466 -571 230 -179
389 -258 654 -325 258 -65 -91 -60 4296 -60 4372 0 4031 -5 4290 59 230 57
372 121 569 259 234 164 428 390 556 647 92 185 158 422 180 647 7 69 10 1412
7 4058 -3 3717 -4 3960 -20 4040 -73 350 -141 521 -304 752 -104 149 -224 273
-364 377 -217 163 -371 237 -609 297 -279 69 80 64 -4320 63 -2192 -1 -4010
-5 -4041 -10z m7354 -1429 c260 -30 537 -213 677 -448 57 -97 107 -225 120
-307 7 -49 10 -1075 8 -3425 l-3 -3355 -29 -75 c-102 -269 -258 -450 -481
-560 -123 -60 -177 -78 -274 -91 -50 -6 -1237 -9 -3401 -7 l-3325 3 -104 37
c-304 109 -510 316 -618 623 l-28 80 0 3390 0 3390 23 70 c57 169 135 295 254
411 91 89 164 140 272 189 101 45 166 65 244 75 103 12 6560 12 6665 0z"/>
<path fill="#d0d0d0" d="M8382 9554 c-209 -46 -249 -68 -507 -280 -344 -283 -434 -400 -509
-661 -37 -129 -83 -340 -116 -528 -21 -118 -56 -308 -66 -352 -6 -29 -29 -29
-145 -4 -149 33 -101 -2 -801 597 -119 101 -155 124 -195 124 -30 0 -45 11
-124 94 -112 117 -140 131 -266 124 -148 -8 -233 -50 -373 -184 -103 -99 -142
-173 -144 -272 -1 -37 3 -82 7 -99 l9 -33 -54 0 c-69 0 -172 -29 -234 -65 -68
-40 -205 -184 -245 -258 -31 -58 -34 -68 -34 -157 0 -145 20 -173 248 -344 64
-49 117 -90 117 -91 0 -2 -56 32 -126 75 -168 106 -229 114 -368 51 -111 -50
-212 -165 -289 -328 -27 -59 -32 -78 -31 -148 0 -114 38 -186 139 -260 18 -13
14 -14 -50 -15 -91 0 -174 -38 -249 -112 -105 -106 -137 -222 -97 -356 34
-114 145 -365 206 -467 149 -250 442 -585 690 -787 218 -178 634 -455 886
-591 222 -119 392 -184 934 -356 340 -109 721 -280 1145 -515 172 -95 199
-102 273 -65 106 54 266 199 368 334 123 163 186 282 226 430 33 120 109 256
207 369 138 160 148 171 191 196 96 58 183 119 189 135 3 9 6 38 6 64 l0 47
-202 179 c-536 477 -719 710 -844 1078 -86 253 -86 423 2 857 24 120 27 158
28 340 0 113 -4 324 -8 470 -12 371 -10 377 185 831 121 282 157 343 289 484
86 93 114 150 114 235 0 106 -44 173 -142 216 -65 29 -96 29 -240 -2z"/>
</g>
</svg>
