<?xml version="1.0" standalone="no"?>
<!DOCTYPE svg PUBLIC "-//W3C//DTD SVG 20010904//EN"
 "http://www.w3.org/TR/2001/REC-SVG-20010904/DTD/svg10.dtd">
<svg version="1.0" xmlns="http://www.w3.org/2000/svg"
 width="1280.000000pt" height="1280.000000pt" viewBox="0 0 1280.000000 1280.000000"
 preserveAspectRatio="xMidYMid meet">
<metadata>
Created by potrace 1.15, written by Peter Selinger 2001-2017
</metadata>
<g transform="translate(0.000000,1280.000000) scale(0.100000,-0.100000)"
fill="#d0d0d0" stroke="none">
<path fill="#d0d0d0" d="M2479 12009 c-87 -13 -312 -66 -397 -95 -284 -94 -596 -324 -786
-578 -177 -236 -246 -384 -311 -666 -19 -80 -39 -189 -44 -242 -15 -133 -15
-7896 -1 -8022 24 -209 99 -472 179 -630 105 -206 294 -437 466 -571 230 -179
389 -258 654 -325 258 -65 -91 -60 4296 -60 4372 0 4031 -5 4290 59 230 57
372 121 569 259 234 164 428 390 556 647 92 185 158 422 180 647 7 69 10 1412
7 4058 -3 3717 -4 3960 -20 4040 -73 350 -141 521 -304 752 -104 149 -224 273
-364 377 -217 163 -371 237 -609 297 -279 69 80 64 -4320 63 -2192 -1 -4010
-5 -4041 -10z m7354 -1429 c260 -30 537 -213 677 -448 57 -97 107 -225 120
-307 7 -49 10 -1075 8 -3425 l-3 -3355 -29 -75 c-102 -269 -258 -450 -481
-560 -123 -60 -177 -78 -274 -91 -50 -6 -1237 -9 -3401 -7 l-3325 3 -104 37
c-304 109 -510 316 -618 623 l-28 80 0 3390 0 3390 23 70 c57 169 135 295 254
411 91 89 164 140 272 189 101 45 166 65 244 75 103 12 6560 12 6665 0z"/>
<path fill="#d0d0d0" d="M2788 7809 c-20 -8 -30 -21 -37 -47 -6 -20 -19 -453 -31 -962 -11
-509 -25 -1083 -30 -1277 -11 -379 -9 -398 38 -410 31 -7 91 -4 942 57 382 27
711 53 730 57 23 5 39 17 46 33 10 20 75 612 74 669 0 8 2 12 4 10 3 -2 10
-175 16 -384 7 -209 16 -390 21 -403 5 -12 20 -27 34 -32 16 -6 160 -3 422 10
219 11 408 20 420 20 12 0 33 10 48 23 l25 22 45 800 c53 954 84 1533 87 1632
3 64 0 75 -19 95 l-23 22 -540 -26 c-479 -23 -543 -28 -561 -44 -25 -22 -25
-54 1 -824 25 -756 25 -713 1 -700 -13 6 -151 10 -380 10 l-361 0 0 28 c0 15
20 259 44 542 25 283 55 633 67 778 l23 263 -23 22 -22 22 -517 2 c-329 1
-527 -2 -544 -8z"/>
<path fill="#d0d0d0" d="M9169 7809 c-301 -29 -555 -152 -763 -369 -135 -142 -239 -318 -306
-519 -71 -213 -84 -297 -85 -546 0 -248 15 -346 82 -538 194 -558 672 -858
1283 -805 245 21 529 115 627 207 27 26 24 5 79 484 42 369 44 400 30 423 -31
46 -55 41 -191 -35 -340 -193 -548 -240 -712 -160 -42 20 -133 100 -133 116 0
5 78 18 173 31 94 12 274 35 400 51 125 17 325 38 445 47 258 21 255 20 269
130 15 126 9 460 -10 556 -27 132 -64 254 -106 344 -162 345 -451 546 -837
584 -111 11 -125 11 -245 -1z m211 -911 c41 -28 79 -100 80 -149 0 -36 -1 -36
-47 -42 -115 -14 -344 -30 -349 -24 -9 9 31 88 71 140 40 52 121 97 175 97 22
0 51 -9 70 -22z"/>
<path fill="#d0d0d0" d="M5765 7780 c-12 -4 -26 -14 -33 -22 -12 -15 -21 -259 -42 -1138 -6
-239 -15 -613 -20 -830 -5 -217 -10 -460 -12 -539 -2 -197 -20 -185 262 -176
461 15 628 23 648 34 11 6 24 21 28 33 4 12 12 140 18 283 l11 260 242 -302
c134 -166 252 -307 263 -313 16 -8 123 6 481 65 253 41 469 80 480 86 30 16
42 56 26 88 -7 14 -178 285 -380 602 -201 317 -369 582 -372 590 -3 9 151 186
409 471 227 251 416 467 419 478 9 33 -12 68 -47 79 -17 6 -240 58 -496 116
-361 83 -469 104 -486 96 -12 -5 -118 -136 -234 -290 -117 -155 -213 -281
-214 -281 -1 0 8 111 21 248 13 136 21 257 18 269 -12 48 -27 51 -450 72 -220
11 -427 22 -460 25 -33 2 -69 1 -80 -4z"/>
</g>
</svg>
