<?xml version="1.0" standalone="no"?>
<!DOCTYPE svg PUBLIC "-//W3C//DTD SVG 20010904//EN"
 "http://www.w3.org/TR/2001/REC-SVG-20010904/DTD/svg10.dtd">
<svg version="1.0" xmlns="http://www.w3.org/2000/svg"
 width="1280.000000pt" height="832.000000pt" viewBox="0 0 1280.000000 832.000000"
 preserveAspectRatio="xMidYMid meet">
<metadata>
Created by potrace 1.15, written by Peter Selinger 2001-2017
</metadata>
<g transform="translate(0.000000,832.000000) scale(0.100000,-0.100000)"
fill="#d0d0d0" stroke="none">
<path fill="#d0d0d0" d="M2345 8300 c-172 -68 -355 -335 -472 -689 l-48 -144 -912 7 -913 6 0
-2803 0 -2804 782 -6 c430 -4 1027 -7 1328 -7 l546 0 32 -192 c134 -806 134
-990 0 -1205 -108 -172 -320 -285 -538 -286 -144 0 -267 50 -324 132 -24 35
-46 90 -46 117 0 6 32 15 70 21 148 23 268 110 332 240 32 65 33 72 33 183 0
106 -2 120 -28 172 -44 89 -116 161 -204 205 -67 33 -86 38 -168 41 -156 7
-259 -41 -398 -187 -92 -96 -137 -227 -139 -410 -2 -160 45 -272 166 -396 279
-284 802 -378 1136 -204 249 129 383 374 397 724 7 179 -25 436 -111 904 -14
74 -24 137 -21 139 2 2 384 1 849 -3 l845 -8 27 -56 c61 -127 228 -253 394
-298 98 -26 264 -24 360 6 84 25 182 76 242 124 48 39 120 132 145 188 l18 42
760 -7 c418 -3 1658 -8 2755 -11 1097 -3 2320 -8 2718 -11 l722 -6 0 44 0 45
-2157 6 c-1187 4 -2747 10 -3466 14 l-1309 6 7 26 c34 143 46 327 52 824 l5
438 1237 -7 c798 -4 1238 -10 1242 -17 4 -5 10 -28 13 -51 22 -138 157 -302
307 -375 122 -59 199 -74 339 -68 183 8 315 63 434 182 69 68 109 135 146 245
l25 75 48 0 c26 -1 413 -2 861 -3 l813 -2 7 -137 c8 -154 17 -208 40 -231 11
-12 48 -18 138 -23 142 -9 253 -35 356 -84 89 -42 126 -69 223 -162 84 -80
107 -88 153 -52 20 16 26 29 26 59 0 34 -8 46 -70 109 -158 159 -356 252 -599
282 -98 12 -99 12 -105 42 -3 16 -6 68 -6 115 l0 85 595 -6 595 -6 0 45 0 44
-595 0 -595 0 0 133 c0 163 12 358 50 816 17 195 30 359 30 364 0 7 203 8 620
4 l620 -7 0 45 0 45 -616 0 -617 0 7 73 c23 265 30 457 31 787 0 206 -3 387
-8 403 l-7 27 580 0 580 0 0 40 0 40 -589 0 -589 0 -6 45 c-21 135 -155 300
-306 373 -114 56 -185 73 -305 74 -287 2 -529 -163 -608 -413 l-22 -69 -359 2
-359 3 -22 75 c-36 126 -29 120 -198 165 -337 89 -655 229 -1022 448 -55 32
-215 135 -355 228 -279 184 -300 193 -339 143 -12 -15 -21 -35 -21 -45 0 -10
18 -121 40 -246 41 -236 110 -700 110 -742 l0 -23 -2467 7 c-1358 4 -2470 9
-2471 10 -2 2 7 43 21 92 56 196 83 373 98 646 8 156 8 250 -1 379 -6 93 -9
173 -6 176 5 5 4689 -9 8209 -25 l1467 -6 0 40 0 40 -957 7 c-527 3 -2456 11
-4288 16 -1831 6 -3582 13 -3890 16 l-560 6 -24 121 c-41 211 -117 424 -192
534 -46 69 -118 141 -163 165 -57 29 -130 32 -191 8z m247 -729 c25 -10 74
-55 89 -83 9 -17 -1 -18 -173 -18 l-182 0 29 30 c61 64 170 97 237 71z m-786
-198 c-15 -49 -37 -213 -45 -337 -13 -193 7 -430 69 -811 11 -66 20 -123 20
-127 0 -5 -337 -8 -750 -8 l-750 0 0 650 0 650 731 0 c691 0 730 -1 725 -17z
m837 11 c55 -5 78 -11 82 -22 3 -8 8 -63 11 -121 18 -325 -120 -660 -430
-1048 l-81 -102 -107 -1 c-96 0 -108 2 -108 18 0 9 -5 51 -11 92 -14 110 -12
328 6 465 37 281 101 484 212 668 l34 57 158 0 c87 0 192 -3 234 -6z m5282
-564 c364 -243 673 -412 970 -530 112 -45 356 -126 453 -150 23 -6 42 -16 42
-23 0 -7 3 -22 6 -34 l6 -23 -269 0 -270 0 -100 49 c-231 113 -486 270 -916
562 -8 6 -45 180 -47 217 0 16 -4 18 125 -68z m46 -423 c109 -74 352 -226 457
-287 41 -23 71 -44 69 -47 -3 -2 -133 -1 -290 3 l-284 7 -22 166 c-13 91 -25
178 -28 194 -3 15 -3 27 0 27 3 0 47 -28 98 -63z m-6083 -520 l23 -128 -199
-207 c-323 -336 -479 -514 -626 -714 l-79 -108 -328 0 -329 0 0 645 0 645 758
-2 757 -3 23 -128z m250 122 c-6 -14 -90 -100 -94 -96 -3 2 -7 26 -10 53 l-6
49 56 0 c31 0 55 -3 54 -6z m5258 -15 l381 -6 12 -129 c32 -346 42 -520 48
-824 l6 -330 -1084 3 c-596 2 -1087 6 -1090 10 -3 4 -16 68 -28 142 -13 74
-25 146 -28 159 -5 18 -3 23 8 18 8 -3 73 -33 144 -66 264 -121 492 -189 670
-198 103 -5 112 -4 138 17 49 39 28 121 -35 134 -13 3 -63 7 -113 10 -193 11
-530 130 -792 281 -53 31 -107 58 -119 61 -27 7 -59 -9 -80 -41 -14 -22 -12
-40 25 -253 23 -126 41 -238 41 -248 0 -19 -38 -19 -1612 -16 -887 2 -1616 7
-1621 11 -4 4 -23 89 -43 188 l-37 182 90 98 c166 183 263 315 366 498 50 89
73 137 131 278 l16 38 2112 -5 c1162 -4 2284 -9 2494 -12z m1385 -58 c196 -92
447 -182 656 -236 49 -12 45 0 72 -230 27 -224 61 -648 61 -757 0 -10 -163
-13 -783 -13 l-784 0 -6 308 c-7 331 -38 810 -62 955 l-4 27 368 0 368 0 114
-54z m649 24 c4 -14 10 -42 14 -63 7 -37 7 -38 -21 -31 -47 11 -325 104 -342
114 -10 6 46 9 163 7 l180 -2 6 -25z m662 23 l194 -6 3 -40 c5 -95 63 -218
140 -301 122 -130 288 -199 481 -199 173 -1 327 55 440 159 l60 56 0 -188 c0
-172 -20 -573 -36 -718 l-6 -58 -817 7 c-449 4 -818 9 -820 11 -2 2 -8 72 -12
156 -21 395 -55 696 -126 1096 l-6 32 155 0 c85 0 242 -3 350 -7z m-8012
-1129 c12 -64 20 -118 17 -120 -2 -3 -73 -3 -156 -2 l-152 3 128 117 c70 64
131 117 134 117 4 1 17 -51 29 -115z m-1130 -210 c0 -4 -15 -32 -34 -63 -128
-212 -218 -461 -252 -691 -21 -147 -15 -424 11 -537 l5 -23 -165 0 -165 0 0
660 0 660 300 0 c165 0 300 -3 300 -6z m1175 -26 c7 -29 75 -370 75 -375 0 -2
-29 -17 -63 -33 -158 -71 -345 -230 -444 -375 -90 -133 -151 -296 -160 -427
l-6 -78 -258 0 -259 0 0 84 c0 228 71 479 191 677 84 138 157 228 319 392
l157 157 221 0 c222 0 222 0 227 -22z m3391 9 c4 -3 53 -356 68 -492 30 -254
73 -811 64 -821 -2 -2 -475 -1 -1050 3 l-1045 6 -22 110 c-84 428 -367 751
-740 848 -103 27 -265 34 -363 17 -43 -8 -78 -14 -78 -13 0 1 -16 80 -35 175
-19 95 -35 176 -35 178 0 5 3232 -7 3236 -11z m1612 -4 l712 -6 0 -81 c0 -45
-3 -118 -7 -164 l-6 -83 -51 50 c-276 270 -782 225 -990 -88 -147 -221 -121
-479 68 -665 211 -209 560 -246 820 -88 121 73 196 171 260 342 27 70 48 278
62 618 l7 162 783 0 784 0 0 -252 c0 -234 -15 -489 -39 -648 -18 -120 -35
-210 -41 -210 -3 0 -17 19 -32 43 -67 105 -194 198 -333 244 -69 23 -97 26
-205 26 -107 0 -136 -3 -202 -25 -221 -73 -368 -225 -414 -426 l-16 -70 -1236
5 c-681 3 -1238 7 -1240 8 -1 1 -9 103 -17 226 -23 346 -55 655 -95 927 -11
74 -20 140 -20 148 0 17 298 18 1448 7z m4232 -34 c0 -11 -13 -183 -30 -382
-35 -431 -50 -663 -50 -811 l0 -108 -837 7 c-461 4 -839 8 -840 9 -2 2 8 40
22 87 66 231 105 604 105 1019 l0 205 815 -3 815 -2 0 -21z m-8679 -865 c148
-53 277 -164 364 -312 25 -42 45 -80 45 -84 0 -5 -121 -8 -270 -8 l-270 0 -5
23 c-9 38 -85 408 -85 414 0 14 154 -9 221 -33z m-342 -194 c23 -112 39 -206
36 -208 -2 -2 -110 -1 -240 3 l-236 8 6 26 c14 57 81 159 150 227 52 51 95 83
155 113 46 23 84 40 86 38 2 -2 21 -95 43 -207z m-1623 -370 c82 -320 230
-588 443 -800 207 -205 426 -324 704 -381 56 -11 104 -23 107 -26 3 -3 -24 -3
-59 1 -35 3 -401 6 -812 6 l-749 0 0 645 0 645 172 -2 172 -3 22 -85z m640 83
l171 -6 12 -64 c30 -162 105 -298 240 -434 97 -97 206 -177 330 -239 l64 -32
18 23 c17 23 16 24 -45 83 -186 181 -276 373 -276 586 l0 80 264 0 263 0 22
-112 c36 -189 168 -881 175 -920 l7 -36 -68 -16 c-123 -27 -196 -36 -314 -36
-201 0 -390 45 -574 136 -290 143 -484 367 -578 669 -25 82 -57 246 -57 297
l0 28 88 0 c48 0 164 -3 258 -7z m1787 -83 c28 -111 27 -297 -2 -414 -40 -165
-136 -319 -258 -417 -66 -52 -112 -84 -116 -78 -3 4 -185 905 -195 962 l-4 27
278 -2 279 -3 18 -75z m2507 63 c8 -7 4 -722 -4 -787 l-8 -57 -59 55 c-124
115 -291 172 -482 164 -178 -8 -312 -65 -431 -183 -107 -106 -159 -230 -158
-380 l1 -90 -844 3 -843 2 -7 46 c-3 25 -5 48 -2 50 2 2 46 26 99 52 307 157
515 412 602 742 26 98 46 242 46 342 l0 57 1043 -6 c573 -3 1044 -8 1047 -10z
m-3010 -1260 c0 -10 -30 -13 -117 -12 l-118 1 103 18 c57 10 106 21 109 24 8
7 23 -14 23 -31z"/>
</g>
</svg>
