<?xml version="1.0" standalone="no"?>
<!DOCTYPE svg PUBLIC "-//W3C//DTD SVG 20010904//EN"
 "http://www.w3.org/TR/2001/REC-SVG-20010904/DTD/svg10.dtd">
<svg version="1.0" xmlns="http://www.w3.org/2000/svg"
 width="1092.000000pt" height="1280.000000pt" viewBox="0 0 1092.000000 1280.000000"
 preserveAspectRatio="xMidYMid meet">
<metadata>
Created by potrace 1.15, written by Peter Selinger 2001-2017
</metadata>
<g transform="translate(0.000000,1280.000000) scale(0.100000,-0.100000)"
fill="#d0d0d0" stroke="none">
<path fill="#d0d0d0" d="M5483 12791 c-191 -31 -304 -77 -396 -161 -121 -110 -212 -287 -291
-563 -121 -419 -95 -1094 74 -1922 81 -398 112 -500 300 -974 l91 -229 -21
-124 c-81 -477 -177 -888 -422 -1788 -400 -1478 -829 -2734 -1240 -3632 l-53
-116 -430 -216 c-825 -413 -1402 -741 -2103 -1194 -269 -174 -388 -267 -563
-442 -273 -272 -409 -501 -426 -717 -16 -208 92 -383 318 -515 238 -140 432
-193 704 -193 220 0 379 33 610 125 339 134 759 443 1098 809 363 391 945
1234 1297 1877 l33 61 226 96 c1262 537 2495 958 3669 1252 l262 65 93 -77
c654 -553 1240 -770 1735 -643 140 35 265 95 502 239 88 53 211 174 259 254
162 274 142 591 -51 802 -106 116 -252 191 -413 215 -44 6 -136 20 -205 30
-257 40 -300 43 -550 44 -320 0 -561 -25 -908 -93 l-142 -28 -148 186 c-153
191 -333 430 -458 606 -39 55 -155 241 -258 414 -502 841 -976 1701 -1424
2579 l-174 343 46 287 c228 1421 269 2213 144 2747 -74 316 -213 503 -428 575
-73 24 -265 35 -357 21z m33 -709 c48 -26 95 -95 124 -181 54 -161 -7 -732
-106 -993 -26 -69 -97 -188 -112 -188 -21 0 -84 313 -107 537 -20 188 -20 509
0 632 31 187 96 250 201 193z m626 -5043 c435 -792 965 -1557 1467 -2117 57
-64 87 -104 79 -107 -28 -10 -245 -67 -459 -120 -563 -141 -1539 -486 -2513
-890 -115 -47 -210 -84 -212 -82 -2 2 38 98 89 213 460 1027 836 2200 1167
3638 l32 139 132 -259 c73 -142 171 -329 218 -415z m3402 -2580 c186 -32 279
-118 280 -261 1 -36 -3 -70 -7 -74 -13 -13 -173 44 -303 107 -111 54 -370 216
-361 225 2 2 37 8 78 13 81 10 221 5 313 -10z m-6539 -2209 c-175 -349 -561
-853 -860 -1123 -363 -327 -675 -476 -1050 -502 l-101 -7 -13 38 c-22 66 -26
249 -6 323 52 199 214 390 495 583 123 85 238 155 485 293 110 62 236 134 279
160 89 54 846 417 854 410 2 -2 -36 -80 -83 -175z"/>
</g>
</svg>
