<?xml version="1.0" standalone="no"?>
<!DOCTYPE svg PUBLIC "-//W3C//DTD SVG 20010904//EN"
 "http://www.w3.org/TR/2001/REC-SVG-20010904/DTD/svg10.dtd">
<svg version="1.0" xmlns="http://www.w3.org/2000/svg"
 width="1280.000000pt" height="1197.000000pt" viewBox="0 0 1280.000000 1197.000000"
 preserveAspectRatio="xMidYMid meet">
<metadata>
Created by potrace 1.15, written by Peter Selinger 2001-2017
</metadata>
<g transform="translate(0.000000,1197.000000) scale(0.100000,-0.100000)"
fill="#d0d0d0" stroke="none">
<path fill="#d0d0d0" d="M8605 11731 c-51 -23 -101 -80 -114 -128 -6 -21 -15 -83 -20 -138
-56 -550 -230 -901 -644 -1301 -157 -153 -69 -77 -3632 -3128 -2154 -1844
-3261 -2800 -3345 -2884 -69 -70 -155 -167 -192 -217 -219 -295 -354 -625
-415 -1015 -25 -161 -25 -565 0 -735 79 -536 279 -985 567 -1274 330 -332 863
-582 1420 -668 143 -22 542 -25 665 -5 397 65 710 192 995 406 99 75 307 252
4290 3666 1349 1157 2524 2159 2610 2228 502 401 852 527 1422 509 208 -7 241
-2 295 46 69 61 93 168 55 250 -9 20 -713 848 -1563 1840 -851 991 -1686 1964
-1856 2162 -337 393 -350 405 -448 405 -27 0 -68 -9 -90 -19z"/>
</g>
</svg>
