<?xml version="1.0" standalone="no"?>
<!DOCTYPE svg PUBLIC "-//W3C//DTD SVG 20010904//EN"
 "http://www.w3.org/TR/2001/REC-SVG-20010904/DTD/svg10.dtd">
<svg version="1.0" xmlns="http://www.w3.org/2000/svg"
 width="1142.000000pt" height="1280.000000pt" viewBox="0 0 1142.000000 1280.000000"
 preserveAspectRatio="xMidYMid meet">
<metadata>
Created by potrace 1.15, written by Peter Selinger 2001-2017
</metadata>
<g transform="translate(0.000000,1280.000000) scale(0.100000,-0.100000)"
fill="#d0d0d0" stroke="none">
<path fill="#d0d0d0" d="M3202 12790 c-63 -15 -122 -92 -122 -159 0 -50 20 -81 118 -186 284
-303 409 -549 468 -922 15 -95 18 -224 21 -1079 l4 -970 -43 -13 c-163 -48
-581 -232 -823 -363 -517 -280 -912 -573 -1321 -982 -273 -274 -469 -510 -664
-801 -977 -1459 -1107 -3283 -346 -4850 381 -785 952 -1459 1687 -1992 218
-158 559 -367 722 -444 l63 -29 2755 2 2754 3 62 33 c732 382 1393 940 1878
1587 803 1070 1141 2378 949 3675 -38 255 -131 637 -209 860 -136 387 -352
819 -575 1151 -634 944 -1574 1680 -2690 2105 l-165 62 -3 809 c-3 856 4 1111
38 1309 53 307 183 554 432 821 61 65 117 132 124 150 32 75 7 157 -59 201
l-41 27 -2490 2 c-1370 0 -2506 -3 -2524 -7z m4588 -328 c0 -5 -7 -15 -14 -22
-26 -21 -137 -200 -186 -299 -88 -177 -139 -351 -176 -601 -15 -101 -18 -240
-21 -1164 -3 -765 -1 -1056 7 -1076 24 -58 69 -87 215 -139 691 -245 1253
-566 1783 -1017 130 -111 440 -416 501 -493 l34 -42 -94 5 c-105 7 -1296 25
-2253 35 l-629 6 -24 94 c-106 424 -442 729 -887 806 -222 38 -454 2 -671
-105 -277 -136 -482 -386 -559 -680 l-24 -95 -1627 -3 -1627 -2 71 79 c39 44
123 129 186 189 558 537 1255 964 1989 1218 155 53 191 74 220 124 21 34 21
49 24 865 4 1061 -8 1353 -64 1600 -48 210 -148 441 -268 615 l-65 95 1562 5
c859 3 1795 6 2080 8 320 2 517 0 517 -6z m-1780 -4133 c246 -62 455 -253 535
-489 77 -226 41 -468 -99 -664 -259 -364 -789 -432 -1142 -148 -123 99 -225
267 -260 426 -22 103 -15 261 16 361 123 395 535 618 950 514z m1450 -1924
c203 -49 387 -201 477 -393 98 -210 79 -467 -47 -655 -57 -86 -152 -177 -233
-226 -157 -93 -371 -125 -549 -82 -253 60 -449 238 -524 476 -54 171 -40 335
42 503 148 302 493 458 834 377z m-749 -2084 c170 -54 306 -191 365 -371 22
-70 23 -214 1 -288 -69 -228 -268 -384 -507 -399 -327 -20 -600 227 -600 542
0 256 188 480 450 535 68 14 216 4 291 -19z m696 -1939 c155 -49 261 -167 294
-330 36 -173 -66 -364 -238 -445 -59 -27 -81 -32 -168 -35 -116 -4 -186 15
-271 73 -204 140 -236 435 -68 616 116 123 291 171 451 121z"/>
</g>
</svg>
