<?xml version="1.0" standalone="no"?>
<!DOCTYPE svg PUBLIC "-//W3C//DTD SVG 20010904//EN"
 "http://www.w3.org/TR/2001/REC-SVG-20010904/DTD/svg10.dtd">
<svg version="1.0" xmlns="http://www.w3.org/2000/svg"
 width="895.000000pt" height="1280.000000pt" viewBox="0 0 895.000000 1280.000000"
 preserveAspectRatio="xMidYMid meet">
<metadata>
Created by potrace 1.15, written by Peter Selinger 2001-2017
</metadata>
<g transform="translate(0.000000,1280.000000) scale(0.100000,-0.100000)"
fill="#d0d0d0" stroke="none">
<path fill="#d0d0d0" d="M4140 12724 c-209 -242 -356 -536 -419 -841 -62 -302 -64 -619 -5
-1003 28 -182 56 -317 139 -677 79 -344 98 -465 93 -593 -5 -119 -24 -171 -80
-213 -65 -49 -64 -49 -166 92 -164 226 -394 474 -587 631 -232 188 -476 313
-695 354 -79 15 -310 22 -323 10 -3 -3 18 -38 47 -78 29 -39 96 -136 149 -216
341 -520 543 -1027 609 -1530 16 -126 16 -461 -1 -580 -17 -123 -71 -333 -111
-435 -36 -90 -89 -195 -100 -195 -3 0 -31 30 -61 67 -85 105 -295 310 -425
415 -255 206 -531 362 -807 457 -255 88 -507 108 -507 40 0 -11 34 -45 83 -83
271 -212 464 -515 587 -926 101 -336 147 -738 137 -1190 -5 -207 -29 -522 -42
-558 -3 -8 -35 11 -92 56 -336 264 -722 465 -993 516 -94 18 -232 21 -311 6
-62 -12 -178 -67 -228 -108 l-34 -29 97 -52 c53 -29 143 -83 199 -120 492
-325 680 -680 645 -1218 -9 -144 -22 -242 -73 -557 -20 -120 -42 -274 -50
-341 -62 -534 5 -1173 177 -1680 220 -650 620 -1217 1130 -1600 l99 -75 -296
0 -295 0 0 -235 0 -235 2855 0 2855 0 0 235 0 235 -342 0 -343 0 155 78 c1134
574 1881 1547 2085 2717 45 265 50 320 49 605 -2 692 -125 1265 -335 1559 -24
33 -40 48 -43 40 -2 -8 -14 -45 -26 -84 -63 -200 -201 -365 -342 -407 -51 -15
-58 -5 -58 82 0 84 16 167 91 463 135 537 159 643 180 811 22 181 -3 454 -62
662 -76 273 -216 515 -412 714 -78 79 -264 228 -272 218 -1 -2 1 -34 6 -73 12
-101 11 -456 -1 -555 -25 -201 -82 -416 -147 -544 -42 -85 -102 -167 -172
-239 -56 -58 -145 -127 -163 -127 -16 0 -21 96 -28 625 -10 707 -25 935 -86
1300 -155 930 -532 1546 -1129 1843 -90 45 -233 102 -255 102 -4 0 22 -66 60
-147 186 -406 286 -734 315 -1034 8 -80 -47 -580 -62 -565 -2 2 -15 59 -29
127 -107 528 -464 1184 -954 1754 -162 189 -253 344 -364 618 -169 421 -318
998 -411 1597 -15 96 -30 178 -34 182 -3 4 -35 -27 -71 -68z m1400 -7296 c62
-145 85 -383 77 -817 -6 -338 -27 -644 -72 -1036 -14 -121 -28 -246 -32 -278
l-6 -58 26 10 c241 92 511 363 905 911 61 85 125 171 141 190 29 33 32 34 45
17 34 -43 32 -224 -5 -457 -70 -446 -244 -869 -450 -1095 l-53 -58 34 8 c125
26 309 109 448 202 96 65 245 202 324 299 28 35 53 63 54 61 5 -5 -36 -193
-66 -300 -250 -896 -888 -1647 -1765 -2079 -169 -83 -397 -176 -555 -226 -344
-109 -326 -105 -424 -100 -212 12 -524 162 -803 386 -494 398 -805 942 -874
1526 -7 62 -10 175 -6 300 7 281 48 490 154 776 35 98 192 430 202 430 3 0 32
-105 63 -233 217 -879 540 -1459 923 -1657 65 -34 149 -59 161 -47 3 2 -13 69
-35 148 -216 792 -277 1479 -166 1864 28 95 51 146 98 217 33 50 47 59 47 33
0 -29 92 -260 155 -390 159 -327 357 -535 561 -589 l51 -13 22 101 c172 786
428 1463 727 1924 29 45 58 82 63 82 4 0 19 -24 31 -52z"/>
</g>
</svg>
